<?xml version="1.0" encoding="UTF-8"?>
<!DOCTYPE svg PUBLIC "-//W3C//DTD SVG 1.1//EN" "http://www.w3.org/Graphics/SVG/1.1/DTD/svg11.dtd">
<svg xmlns="http://www.w3.org/2000/svg" version="1.1" width="283px" height="48px" style="shape-rendering:geometricPrecision; text-rendering:geometricPrecision; image-rendering:optimizeQuality; fill-rule:evenodd; clip-rule:evenodd" xmlns:xlink="http://www.w3.org/1999/xlink">
<g><path style="opacity:0.741" fill="#fc2e84" d="M 184.5,4.5 C 183.167,6.16667 181.833,7.83333 180.5,9.5C 180.167,9.5 179.833,9.5 179.5,9.5C 179.777,6.55247 179.444,3.71914 178.5,1C 181.304,0.612568 183.304,1.77923 184.5,4.5 Z"/></g>
<g><path style="opacity:0.999" fill="#bf249e" d="M 184.5,4.5 C 185.167,4.5 185.5,4.83333 185.5,5.5C 185.5,8.16667 185.5,10.8333 185.5,13.5C 183.57,13.2294 182.236,12.2294 181.5,10.5C 180.833,10.5 180.5,10.1667 180.5,9.5C 181.833,7.83333 183.167,6.16667 184.5,4.5 Z"/></g>
<g><path style="opacity:0.896" fill="#7d6cd3" d="M 185.5,5.5 C 187.063,6.94478 188.396,8.61145 189.5,10.5C 185.257,12.7703 185.59,13.7703 190.5,13.5C 190.5,14.8333 190.5,16.1667 190.5,17.5C 190.167,17.5 189.833,17.5 189.5,17.5C 188.564,16.0256 187.23,15.0256 185.5,14.5C 185.5,14.1667 185.5,13.8333 185.5,13.5C 185.5,10.8333 185.5,8.16667 185.5,5.5 Z"/></g>
<g><path style="opacity:0.664" fill="#fefffe" d="M 45.5,9.5 C 52.5179,9.18459 55.8513,12.5179 55.5,19.5C 51.8183,19.3347 48.1516,19.5014 44.5,20C 46.8272,21.8151 49.3272,21.9818 52,20.5C 55.2988,22.1273 55.1322,23.6273 51.5,25C 41.4879,26.3205 37.9879,22.1538 41,12.5C 42.4087,11.2189 43.9087,10.2189 45.5,9.5 Z M 46.5,13.5 C 48.1033,13.3118 49.4366,13.8118 50.5,15C 48.5,15.6667 46.5,15.6667 44.5,15C 45.4158,14.7216 46.0825,14.2216 46.5,13.5 Z"/></g>
<g><path style="opacity:0.705" fill="#fefffe" d="M 61.5,9.5 C 65.1352,10.1143 68.8019,10.4476 72.5,10.5C 72.6658,15.1785 72.4992,19.8452 72,24.5C 69.4635,24.3656 66.7969,24.699 64,25.5C 60.7262,25.6994 58.3929,24.3661 57,21.5C 55.3087,16.1311 56.8087,12.1311 61.5,9.5 Z M 63.5,13.5 C 68.3051,14.5995 69.3051,17.0995 66.5,21C 62,21.8333 60.1667,20 61,15.5C 61.9947,14.9341 62.828,14.2674 63.5,13.5 Z"/></g>
<g><path style="opacity:0.663" fill="#fefffe" d="M 90.5,9.5 C 93.505,9.25297 96.005,10.253 98,12.5C 98.499,16.8206 98.6657,21.1539 98.5,25.5C 97.1779,25.67 96.0113,25.3366 95,24.5C 94.6667,21.1667 94.3333,17.8333 94,14.5C 92.8869,13.2889 91.7202,13.2889 90.5,14.5C 89.6764,17.7848 89.1764,21.1182 89,24.5C 87.6667,25.8333 86.3333,25.8333 85,24.5C 84.5008,19.8452 84.3342,15.1785 84.5,10.5C 86.7354,10.7947 88.7354,10.4614 90.5,9.5 Z"/></g>
<g><path style="opacity:0.491" fill="#fefffe" d="M 132.5,9.5 C 133.117,9.61071 133.617,9.94404 134,10.5C 134.167,14.8333 134.333,19.1667 134.5,23.5C 134.641,28.3399 134.141,33.0065 133,37.5C 131.859,33.0065 131.359,28.3399 131.5,23.5C 131.527,18.7534 131.86,14.0868 132.5,9.5 Z"/></g>
<g><path style="opacity:0.731" fill="#fefffe" d="M 9.5,10.5 C 10.8333,10.5 12.1667,10.5 13.5,10.5C 13.3354,13.5184 13.502,16.5184 14,19.5C 15.5494,22.0026 17.2161,22.0026 19,19.5C 19.498,16.5184 19.6646,13.5184 19.5,10.5C 20.8333,10.5 22.1667,10.5 23.5,10.5C 23.4028,15.3391 23.9028,20.0057 25,24.5C 21.5929,24.3911 18.0929,24.8911 14.5,26C 13.6198,27.3561 13.2865,28.8561 13.5,30.5C 12.1667,30.5 10.8333,30.5 9.5,30.5C 9.5,23.8333 9.5,17.1667 9.5,10.5 Z"/></g>
<g><path style="opacity:0.693" fill="#fefffe" d="M 27.5,10.5 C 28.8333,10.5 30.1667,10.5 31.5,10.5C 31.3354,13.5184 31.502,16.5184 32,19.5C 34.0693,20.2638 36.236,20.7638 38.5,21C 39.3802,22.3561 39.7135,23.8561 39.5,25.5C 28.2691,26.5859 24.2691,21.5859 27.5,10.5 Z"/></g>
<g><path style="opacity:0.626" fill="#fefffe" d="M 75.5,10.5 C 78.1667,10.5 80.8333,10.5 83.5,10.5C 83.7229,13.1142 82.5562,14.7809 80,15.5C 79.6667,18.5 79.3333,21.5 79,24.5C 77.2859,25.9255 75.9525,25.5922 75,23.5C 74.2316,19.0804 74.3982,14.7471 75.5,10.5 Z"/></g>
<g><path style="opacity:0.765" fill="#fca650" d="M 179.5,9.5 C 179.833,9.5 180.167,9.5 180.5,9.5C 180.5,10.1667 180.833,10.5 181.5,10.5C 181.027,11.9063 180.027,12.573 178.5,12.5C 179.11,11.609 179.443,10.609 179.5,9.5 Z"/></g>
<g><path style="opacity:0.816" fill="#128fdd" d="M 189.5,10.5 C 189.557,11.609 189.89,12.609 190.5,13.5C 185.59,13.7703 185.257,12.7703 189.5,10.5 Z"/></g>
<g><path style="opacity:1" fill="#f43482" d="M 178.5,12.5 C 180.027,12.573 181.027,11.9063 181.5,10.5C 182.236,12.2294 183.57,13.2294 185.5,13.5C 185.5,13.8333 185.5,14.1667 185.5,14.5C 184.952,16.5323 183.619,17.5323 181.5,17.5C 181.5,16.8333 181.167,16.5 180.5,16.5C 178.309,15.7093 176.309,15.7093 174.5,16.5C 173.833,16.5 173.5,16.1667 173.5,15.5C 174.907,13.6917 176.074,11.6917 177,9.5C 177.083,11.5064 177.583,12.5064 178.5,12.5 Z"/></g>
<g><path style="opacity:0.546" fill="#fefffe" d="M 227.5,14.5 C 229.5,14.8333 231.5,15.1667 233.5,15.5C 233.5,16.5 233.5,17.5 233.5,18.5C 226.549,17.7603 226.216,18.427 232.5,20.5C 233.9,26.1834 231.566,28.3501 225.5,27C 224.148,23.9429 224.981,23.1096 228,24.5C 229.059,24.3699 229.892,23.8699 230.5,23C 227.953,22.9326 225.786,22.0993 224,20.5C 222.924,17.0943 224.09,15.0943 227.5,14.5 Z"/></g>
<g><path style="opacity:0.605" fill="#fefffe" d="M 201.5,15.5 C 202.5,15.5 203.5,15.5 204.5,15.5C 204.5,19.5 204.5,23.5 204.5,27.5C 203.5,27.5 202.5,27.5 201.5,27.5C 201.5,23.5 201.5,19.5 201.5,15.5 Z"/></g>
<g><path style="opacity:0.52" fill="#fefffe" d="M 208.5,15.5 C 212.17,15.3266 214.67,16.9933 216,20.5C 216.494,18.8659 216.66,17.1992 216.5,15.5C 217.833,15.5 219.167,15.5 220.5,15.5C 220.665,19.1817 220.499,22.8484 220,26.5C 218.817,27.731 217.651,27.731 216.5,26.5C 213.24,19.5649 211.906,19.8982 212.5,27.5C 211.167,27.5 209.833,27.5 208.5,27.5C 208.5,23.5 208.5,19.5 208.5,15.5 Z"/></g>
<g><path style="opacity:0.618" fill="#fefffe" d="M 237.5,15.5 C 240.448,15.2229 243.281,15.5562 246,16.5C 247.513,20.7631 246.013,23.0964 241.5,23.5C 240.571,24.6888 240.238,26.0222 240.5,27.5C 239.5,27.5 238.5,27.5 237.5,27.5C 237.5,23.5 237.5,19.5 237.5,15.5 Z M 240.5,18.5 C 243.797,18.3287 244.131,18.9954 241.5,20.5C 240.702,20.0431 240.369,19.3764 240.5,18.5 Z"/></g>
<g><path style="opacity:0.475" fill="#fefffe" d="M 249.5,15.5 C 250.833,15.5 252.167,15.5 253.5,15.5C 253.665,19.1817 253.499,22.8484 253,26.5C 251.989,27.3366 250.822,27.67 249.5,27.5C 249.5,23.5 249.5,19.5 249.5,15.5 Z"/></g>
<g><path style="opacity:0.603" fill="#fefffe" d="M 257.5,15.5 C 260.5,15.5 263.5,15.5 266.5,15.5C 266.896,18.0444 266.229,20.2111 264.5,22C 268.595,25.7192 268.262,27.2192 263.5,26.5C 261.101,21.0254 260.101,21.3588 260.5,27.5C 259.5,27.5 258.5,27.5 257.5,27.5C 257.5,23.5 257.5,19.5 257.5,15.5 Z M 260.5,18.5 C 263.797,18.3287 264.131,18.9954 261.5,20.5C 260.702,20.0431 260.369,19.3764 260.5,18.5 Z"/></g>
<g><path style="opacity:0.556" fill="#fefffe" d="M 282.5,25.5 C 282.5,26.1667 282.5,26.8333 282.5,27.5C 281.167,27.5 279.833,27.5 278.5,27.5C 278.5,26.5 278.5,25.5 278.5,24.5C 275.487,24.3717 272.987,25.3717 271,27.5C 270.5,27.1667 270,26.8333 269.5,26.5C 271.132,22.91 272.466,19.2433 273.5,15.5C 275.144,15.2865 276.644,15.6198 278,16.5C 279.047,19.8589 280.547,22.8589 282.5,25.5 Z"/></g>
<g><path style="opacity:0.906" fill="#9f00ac" d="M 189.5,17.5 C 189.833,17.5 190.167,17.5 190.5,17.5C 190.5,18.8333 190.5,20.1667 190.5,21.5C 187.778,22.8389 186.111,21.8389 185.5,18.5C 186.689,17.5713 188.022,17.238 189.5,17.5 Z"/></g>
<g><path style="opacity:0.619" fill="#ffa44e" d="M 169.5,19.5 C 170.478,19.811 171.145,20.4777 171.5,21.5C 169.955,22.4519 168.288,22.7852 166.5,22.5C 167.167,21.1667 168.167,20.1667 169.5,19.5 Z"/></g>
<g><path style="opacity:0.81" fill="#db0259" d="M 179.5,20.5 C 180.5,20.5 181.5,20.5 182.5,20.5C 182.146,22.5412 182.146,24.3745 182.5,26C 181.975,26.6924 181.308,27.1924 180.5,27.5C 179.526,25.2573 179.192,22.924 179.5,20.5 Z"/></g>
<g><path style="opacity:0.791" fill="#197fe1" d="M 195.5,21.5 C 197.293,23.4261 198.293,25.7594 198.5,28.5C 195.186,27.705 193.686,25.705 194,22.5C 194.383,21.944 194.883,21.6107 195.5,21.5 Z"/></g>
<g><path style="opacity:0.993" fill="#7e35ba" d="M 195.5,21.5 C 194.883,21.6107 194.383,21.944 194,22.5C 193.686,25.705 195.186,27.705 198.5,28.5C 198.5,29.1667 198.5,29.8333 198.5,30.5C 196.019,31.7197 194.019,33.3863 192.5,35.5C 188.603,32.1671 188.603,28.6671 192.5,25C 191.584,24.7216 190.918,24.2216 190.5,23.5C 190.5,23.1667 190.5,22.8333 190.5,22.5C 190.5,22.1667 190.5,21.8333 190.5,21.5C 192.114,16.2279 193.781,16.2279 195.5,21.5 Z"/></g>
<g><path style="opacity:0.399" fill="#fefffe" d="M 202.5,29.5 C 204.335,30.1223 205.502,31.4556 206,33.5C 206.196,31.7139 207.029,30.3805 208.5,29.5C 209.833,32.1667 209.833,34.8333 208.5,37.5C 207.575,36.3595 206.741,36.3595 206,37.5C 205.085,36.6721 204.419,35.6721 204,34.5C 203.667,35.5 203.333,36.5 203,37.5C 202.503,34.854 202.336,32.1873 202.5,29.5 Z"/></g>
<g><path style="opacity:0.325" fill="#fefffe" d="M 213.5,29.5 C 215.858,31.168 217.524,33.5013 218.5,36.5C 218.167,36.8333 217.833,37.1667 217.5,37.5C 216.5,36.8333 215.5,36.1667 214.5,35.5C 213.5,36.1667 212.5,36.8333 211.5,37.5C 211.167,37.1667 210.833,36.8333 210.5,36.5C 211.788,34.2612 212.788,31.9279 213.5,29.5 Z"/></g>
<g><path style="opacity:0.332" fill="#fefffe" d="M 219.5,29.5 C 222.045,29.1505 224.045,29.9838 225.5,32C 223.027,33.4019 223.027,34.9019 225.5,36.5C 224.132,37.5937 222.965,37.2603 222,35.5C 221.692,36.3081 221.192,36.9747 220.5,37.5C 219.52,34.9135 219.187,32.2469 219.5,29.5 Z"/></g>
<g><path style="opacity:0.342" fill="#fefffe" d="M 226.5,29.5 C 227.748,30.3339 228.415,31.6672 228.5,33.5C 228.167,34.8333 227.833,36.1667 227.5,37.5C 226.52,34.9135 226.187,32.2469 226.5,29.5 Z"/></g>
<g><path style="opacity:0.318" fill="#fefffe" d="M 232.5,29.5 C 233.496,29.4142 234.329,29.7476 235,30.5C 235.45,32.519 236.283,34.3523 237.5,36C 236.181,37.6279 234.848,37.4613 233.5,35.5C 232.5,36.1667 231.5,36.8333 230.5,37.5C 230.167,37.1667 229.833,36.8333 229.5,36.5C 230.702,34.2195 231.702,31.8862 232.5,29.5 Z"/></g>
<g><path style="opacity:0.364" fill="#fefffe" d="M 238.5,29.5 C 240.411,29.5743 241.578,30.5743 242,32.5C 242.249,31.376 242.749,30.376 243.5,29.5C 244.833,32.1667 244.833,34.8333 243.5,37.5C 242.667,36.5 241.833,35.5 241,34.5C 240.751,35.624 240.251,36.624 239.5,37.5C 238.52,34.9135 238.187,32.2469 238.5,29.5 Z"/></g>
<g><path style="opacity:0.399" fill="#fefffe" d="M 70.5,30.5 C 72.5922,30.5614 74.0922,31.5614 75,33.5C 76.0195,32.3128 77.1861,31.3128 78.5,30.5C 79.657,33.7844 79.8236,37.1177 79,40.5C 77.883,39.0506 77.2163,37.3839 77,35.5C 75.3141,38.022 73.9808,37.6887 73,34.5C 72.6667,36.5 72.3333,38.5 72,40.5C 70.5949,37.3812 70.0949,34.0479 70.5,30.5 Z"/></g>
<g><path style="opacity:0.392" fill="#fefffe" d="M 82.5,30.5 C 85.3938,30.0423 87.8938,30.709 90,32.5C 92.1212,30.5426 94.6212,30.0426 97.5,31C 95.8659,31.4935 94.1992,31.6602 92.5,31.5C 92.5,32.5 92.5,33.5 92.5,34.5C 99.0486,34.9071 99.0486,35.9071 92.5,37.5C 94.1667,38.1667 95.8333,38.8333 97.5,39.5C 94.7185,40.952 92.2185,40.6187 90,38.5C 85.2119,41.8426 82.0452,40.6759 80.5,35C 81.0439,33.415 81.7106,31.915 82.5,30.5 Z M 84.5,31.5 C 86.3146,32.6298 88.3146,33.2964 90.5,33.5C 90.6567,34.8734 90.49,36.2068 90,37.5C 89.6667,37.1667 89.3333,36.8333 89,36.5C 86.1582,39.3351 83.9916,38.8351 82.5,35C 83.305,33.8873 83.9717,32.7206 84.5,31.5 Z"/></g>
<g><path style="opacity:0.98" fill="#f7376f" d="M 173.5,15.5 C 173.5,16.1667 173.833,16.5 174.5,16.5C 175.026,18.2303 176.026,19.5637 177.5,20.5C 177.724,25.0586 177.058,29.3919 175.5,33.5C 176.301,35.0418 176.634,36.7085 176.5,38.5C 174.863,36.6838 173.363,34.6838 172,32.5C 170.158,34.8636 168.325,37.1969 166.5,39.5C 166.672,40.4916 166.338,41.1583 165.5,41.5C 162.64,34.9708 162.973,28.6374 166.5,22.5C 168.288,22.7852 169.955,22.4519 171.5,21.5C 171.145,20.4777 170.478,19.811 169.5,19.5C 170.5,17.8333 171.833,16.5 173.5,15.5 Z"/></g>
<g><path style="opacity:0.885" fill="#4f99fb" d="M 198.5,30.5 C 198.5,32.5 198.5,34.5 198.5,36.5C 196.565,35.8505 194.565,35.5172 192.5,35.5C 194.019,33.3863 196.019,31.7197 198.5,30.5 Z"/></g>
<g><path style="opacity:0.84" fill="#b60685" d="M 185.5,14.5 C 187.23,15.0256 188.564,16.0256 189.5,17.5C 188.022,17.238 186.689,17.5713 185.5,18.5C 186.111,21.8389 187.778,22.8389 190.5,21.5C 190.5,21.8333 190.5,22.1667 190.5,22.5C 189.833,22.5 189.5,22.8333 189.5,23.5C 189.279,26.0972 188.779,26.0972 188,23.5C 187.13,24.1079 186.63,24.9412 186.5,26C 189.754,31.16 188.754,34.9933 183.5,37.5C 183.114,34.7383 181.781,33.7383 179.5,34.5C 178.867,36.9955 178.534,39.3288 178.5,41.5C 178.167,41.5 177.833,41.5 177.5,41.5C 177.5,41.1667 177.5,40.8333 177.5,40.5C 177.672,39.5084 177.338,38.8417 176.5,38.5C 176.634,36.7085 176.301,35.0418 175.5,33.5C 178.966,30.8673 182.466,30.8673 186,33.5C 186.167,32.8333 186.333,32.1667 186.5,31.5C 185.043,28.009 184.043,24.3423 183.5,20.5C 181.484,19.3058 179.484,19.3058 177.5,20.5C 176.026,19.5637 175.026,18.2303 174.5,16.5C 176.309,15.7093 178.309,15.7093 180.5,16.5C 181.167,16.5 181.5,16.8333 181.5,17.5C 183.619,17.5323 184.952,16.5323 185.5,14.5 Z"/></g>
<g><path style="opacity:1" fill="#e80b9b" d="M 176.5,38.5 C 177.338,38.8417 177.672,39.5084 177.5,40.5C 173.865,39.8857 170.198,39.5524 166.5,39.5C 168.325,37.1969 170.158,34.8636 172,32.5C 173.363,34.6838 174.863,36.6838 176.5,38.5 Z"/></g>
<g><path style="opacity:0.955" fill="#9714a8" d="M 189.5,23.5 C 189.833,23.5 190.167,23.5 190.5,23.5C 190.918,24.2216 191.584,24.7216 192.5,25C 188.603,28.6671 188.603,32.1671 192.5,35.5C 192.5,37.1667 192.5,38.8333 192.5,40.5C 189.167,40.5 185.833,40.5 182.5,40.5C 183.11,39.609 183.443,38.609 183.5,37.5C 188.754,34.9933 189.754,31.16 186.5,26C 186.63,24.9412 187.13,24.1079 188,23.5C 188.779,26.0972 189.279,26.0972 189.5,23.5 Z"/></g>
<g><path style="opacity:1" fill="#663bb9" d="M 192.5,35.5 C 194.565,35.5172 196.565,35.8505 198.5,36.5C 198.011,37.9952 197.345,39.3285 196.5,40.5C 195.167,40.5 193.833,40.5 192.5,40.5C 192.5,38.8333 192.5,37.1667 192.5,35.5 Z"/></g>
<g><path style="opacity:0.813" fill="#a326b7" d="M 166.5,39.5 C 170.198,39.5524 173.865,39.8857 177.5,40.5C 177.5,40.8333 177.5,41.1667 177.5,41.5C 175.147,42.3403 173.147,43.6736 171.5,45.5C 168.921,45.6764 166.921,44.3431 165.5,41.5C 166.338,41.1583 166.672,40.4916 166.5,39.5 Z"/></g>
<g><path style="opacity:0.861" fill="#b00a70" d="M 182.5,40.5 C 185.833,40.5 189.167,40.5 192.5,40.5C 191.833,42.1667 191.167,43.8333 190.5,45.5C 187.066,45.0663 184.399,43.3996 182.5,40.5 Z"/></g>
<g><path style="opacity:0.728" fill="#58bbf7" d="M 192.5,40.5 C 193.833,40.5 195.167,40.5 196.5,40.5C 195.797,42.7157 194.464,44.549 192.5,46C 191.563,46.6917 190.897,46.525 190.5,45.5C 191.167,43.8333 191.833,42.1667 192.5,40.5 Z"/></g>
<g><path style="opacity:0.224" fill="#138bf4" d="M 177.5,41.5 C 177.833,41.5 178.167,41.5 178.5,41.5C 176.66,43.6689 174.326,45.0023 171.5,45.5C 173.147,43.6736 175.147,42.3403 177.5,41.5 Z"/></g>
</svg>
