<svg width="1580" height="1198" viewBox="0 0 1580 1198" fill="none" xmlns="http://www.w3.org/2000/svg">
<g clip-path="url(#clip0_98_9)">
<g filter="url(#filter0_f_98_9)">
<path d="M62 877.968C349.5 650.5 211.88 456.572 384.942 314C473.884 240.728 673.077 234.05 767.724 175.564C769.871 174.237 862.546 156.14 855.607 140.369C834.165 91.6348 767.848 73.6709 732.684 60.244C619.571 17.0526 502.117 -2.89172 384.942 0.337459C366.205 0.853835 90.5013 -5.10851 97 32C106.069 83.7833 118.001 159.076 116.453 211.508C110.613 409.223 113.814 603.998 119.148 801.587C120.733 860.269 109.613 937.949 121.305 994.786C124.257 1009.14 189.018 949.06 189.775 948.358C271.82 872.221 397.241 812.287 479.488 736.495C675.5 670 479.488 473 816.5 439C898.353 336.862 898.134 162.195 982.304 63.2393C1003.29 38.5648 1020.28 14.7607 1047 8.5746" stroke="#A795EC" stroke-width="338" stroke-linecap="round"/>
</g>
<g filter="url(#filter1_f_98_9)">
<path d="M822.971 1137C780.318 1107.32 815.548 1172.4 795.388 1130.56C751.497 1039.49 708.5 912.622 765.5 834.154C851.377 715.933 955.5 497.5 1208.57 539.258C1279.26 531.358 1353.75 544 1409.07 580.142C1430.33 594.032 1454.42 607.955 1462.91 629.544C1485.92 688.008 1474.75 754.762 1468.68 814.469C1463.55 865.005 1463.4 915.428 1463.4 966.081C1463.4 995.785 1474.7 1007.84 1496.09 1030.63C1508.01 1043.32 1399.09 1048.3 1391.76 1048.8C1301.51 1054.94 1207.99 1053.86 1119.38 1038.01C1050.5 1025.68 997.401 1009.48 975.865 950.371C957.89 901.032 1022.81 863.588 1062.65 834.154C1094.19 810.856 1124.69 786.64 1165.06 773.017C1205.23 759.463 1254.07 755.705 1297.04 750.115C1327.39 746.167 1356.62 742.255 1386.71 737.054C1397.25 735.232 1407.81 736.793 1411.47 728.158" stroke="#E3B3FF" stroke-width="338" stroke-linecap="round"/>
</g>
<g filter="url(#filter2_f_98_9)">
<path d="M0 1198C66.8326 1170.02 125.37 1123.25 192.118 1095.61C216.185 1085.65 241.964 1078.67 266.848 1071.46C295.417 1063.18 323.539 1062.78 351.057 1049.35C396.096 1027.38 427.49 989.239 465.759 956.831C473.726 950.084 493.359 932 505.889 932C512.486 932 501.598 941.38 500.675 942.545C460.824 992.84 419.222 1043.03 387.711 1100.04C382.937 1108.67 368.063 1169.3 357.219 1170.28C343.258 1171.53 328.885 1170.45 314.877 1170.45C286.271 1170.45 333.436 1168.21 337.786 1168.07C357.9 1167.39 378.018 1167.39 398.139 1167.39C405.553 1167.39 406.428 1167.47 397.191 1171.13C360.841 1185.5 322.703 1188.82 284.385 1188.82" stroke="#FFC582" stroke-width="338" stroke-linecap="round"/>
</g>
<g filter="url(#filter3_f_98_9)">
<path d="M1047 80C1059.29 124.103 1071.39 168.253 1083.19 212.457C1090.36 239.328 1095.52 258.719 1101.66 284.947C1105.68 302.126 1103.51 329.414 1127.48 336.842C1163.1 347.875 1211.56 338.54 1244.53 332.724C1307.19 321.669 1355.92 307.348 1416.24 290.054C1455.68 278.744 1522.78 245.189 1564.95 270.449C1571.3 274.249 1583.02 292.138 1579.28 286.265C1557.6 252.267 1539.75 216.533 1517.08 182.968C1506.91 167.91 1497.58 148.206 1475.8 148.206C1439.42 148.206 1403.05 148.206 1366.67 148.206C1364.07 148.206 1355.78 147.258 1359.13 152.16C1396.17 206.314 1446.25 255.722 1488.62 306.858C1504.79 326.383 1519.94 340.94 1540.83 356.777C1559.62 371.03 1547.59 367.65 1528.76 367.65" stroke="#F48AB1" stroke-width="338" stroke-linecap="round"/>
</g>
</g>
<defs>
<filter id="filter0_f_98_9" x="-307.007" y="-369" width="1723.04" height="1734.99" filterUnits="userSpaceOnUse" color-interpolation-filters="sRGB">
<feFlood flood-opacity="0" result="BackgroundImageFix"/>
<feBlend mode="normal" in="SourceGraphic" in2="BackgroundImageFix" result="shape"/>
<feGaussianBlur stdDeviation="100" result="effect1_foregroundBlur_98_9"/>
</filter>
<filter id="filter1_f_98_9" x="369.183" y="164.987" width="1496.93" height="1346.74" filterUnits="userSpaceOnUse" color-interpolation-filters="sRGB">
<feFlood flood-opacity="0" result="BackgroundImageFix"/>
<feBlend mode="normal" in="SourceGraphic" in2="BackgroundImageFix" result="shape"/>
<feGaussianBlur stdDeviation="100" result="effect1_foregroundBlur_98_9"/>
</filter>
<filter id="filter2_f_98_9" x="-369.044" y="563" width="1245.97" height="1004.04" filterUnits="userSpaceOnUse" color-interpolation-filters="sRGB">
<feFlood flood-opacity="0" result="BackgroundImageFix"/>
<feBlend mode="normal" in="SourceGraphic" in2="BackgroundImageFix" result="shape"/>
<feGaussianBlur stdDeviation="100" result="effect1_foregroundBlur_98_9"/>
</filter>
<filter id="filter3_f_98_9" x="677.957" y="-289.043" width="1271.05" height="1026.04" filterUnits="userSpaceOnUse" color-interpolation-filters="sRGB">
<feFlood flood-opacity="0" result="BackgroundImageFix"/>
<feBlend mode="normal" in="SourceGraphic" in2="BackgroundImageFix" result="shape"/>
<feGaussianBlur stdDeviation="100" result="effect1_foregroundBlur_98_9"/>
</filter>
<clipPath id="clip0_98_9">
<rect width="1580" height="1198" fill="white"/>
</clipPath>
</defs>
</svg>
