<svg width="1643" height="1190" viewBox="0 0 1643 1190" fill="none" xmlns="http://www.w3.org/2000/svg">
<g clip-path="url(#clip0_99_21)">
<g filter="url(#filter0_f_99_21)">
<path d="M485.5 304.512C540.454 332.778 598.089 358.865 657.251 371.743C731.993 388.013 810.571 389.139 886.387 389.139C959.066 389.139 1087.77 380.195 1102.28 274.892C1113.59 192.818 1095.43 115.009 1042.49 58.1518C1026.63 41.1233 1012.86 41.6825 991.926 42.1666C926.628 43.6766 861.259 55.7111 796.097 61.2078C762.98 64.0015 721.64 75.7501 688.552 64.2638C679.196 61.0161 668.444 59.0836 658.857 57.2115C629.291 51.4384 638.463 71.7099 636.384 100.936C634.098 133.081 620.577 161.188 606.689 188.384C578.182 244.208 595.944 277.738 649.025 291.112C705.735 305.401 766.439 305.604 824.187 307.803C873.195 309.668 926.177 315.463 969.052 282.415C993.046 263.92 1019.21 239.635 1019.21 203.194C1019.21 162.194 993.74 159.106 963.836 157.354C913.665 154.415 864.653 164.81 814.958 170.518C784.166 174.055 753.341 170.699 722.661 173.574C717.437 174.064 711.292 176.927 712.027 184.388C715.749 222.179 742.829 261.564 775.23 268.78C809.487 276.409 850.344 270.089 884.381 263.843C916.853 257.885 948.368 241.817 981.492 241.041C998.124 240.651 966.042 280.216 965.04 281.474C910.895 349.441 820.217 401.48 740.719 408.18C687.527 412.664 633.519 398.435 580.204 397.602C570.019 397.443 558.422 399.472 548.703 395.016C543.123 392.458 524.513 374.626 526.03 374.799C561.592 378.864 598.964 395.347 633.977 402.303C706.224 416.657 780.847 426.752 853.883 414.527C892.421 408.077 929.863 393.37 969.052 393.37C978.468 393.37 986.907 391.487 994.735 397.602" stroke="#F18BFB" stroke-width="119" stroke-linecap="round"/>
<path d="M1113.51 412.185C1119 467.126 1130.07 530.436 1176.47 566.568C1227.83 606.572 1302.4 632.831 1367.34 632.332C1391.09 632.149 1403.1 626.316 1420.67 611.079C1440.44 593.936 1462.66 582.517 1483.63 567.37C1485.77 565.825 1505.18 553.29 1498.06 552.935C1447.85 550.424 1408.24 573.805 1360.52 585.014C1305.63 597.908 1253.49 582.961 1211.95 545.917C1201.59 536.67 1168.45 512.662 1168.45 495.993C1168.45 494.611 1252.3 536.876 1258.67 540.103C1300.18 561.136 1347.77 585.658 1395.21 588.623C1422.7 590.341 1450.01 587.337 1477.21 583.811C1487.55 582.471 1505.88 584.119 1513.9 575.591C1527.81 560.811 1521.32 525.231 1521.32 506.018" stroke="#FF5795" stroke-width="119" stroke-linecap="round"/>
<path d="M597.428 502.409C577.189 560.487 556.708 629.551 561.339 691.679C567.347 772.285 669.803 793.316 733.767 798.745C806.204 804.893 884.181 797.961 955.116 781.301C998.303 771.159 1042 754.829 1076.42 725.964C1144.05 669.239 1084.33 563.224 1054.96 499.602C1045.1 478.235 1028.59 462.008 1004.04 469.528C972.584 479.162 942.342 490.56 909.804 496.595C838.295 509.859 763.08 507.257 691.061 500.204C664.483 497.601 636.508 488.714 609.859 487.974C601.928 487.753 611.832 507.365 612.466 510.028C629.255 580.545 636.177 650.764 637.127 722.957C637.744 769.844 738.978 738.386 764.643 735.789C839.272 728.235 941.235 746.885 1005.44 697.092C1039.26 670.867 1015.98 619.167 1003.24 588.222C990.44 557.148 982.931 563.383 955.918 573.787C915.689 589.28 874.143 588.883 831.61 589.024C791.492 589.158 751.213 587.888 711.111 589.225C702.335 589.517 689.081 589.57 682.038 596.242C668.141 609.408 692.203 658.418 706.098 664.411C757.269 686.485 815.872 670.095 868.902 668.622C901.081 667.728 933.347 668.421 965.542 668.421" stroke="#F9C68B" stroke-width="119" stroke-linecap="round"/>
<path d="M1171.25 672.03C1169.85 690.227 1159.26 709.682 1149 724.561C1136.11 743.251 1118.11 769.696 1098.27 781.101C1037.33 816.14 962.701 817.846 894.165 826.413C849.336 832.017 792.069 832.515 747.401 825.611C692.656 817.151 632.898 810.387 586.602 777.492C583.301 775.147 560.071 761.288 568.958 772.079C589.553 797.087 601.863 827.923 627.904 848.869C683.631 893.693 755.738 888.568 822.387 888.568C857.261 888.568 892.727 890.457 927.447 886.763C954.057 883.932 977.052 875.55 1002.43 867.716C1041.99 855.507 1078.09 850.826 1113.51 827.215" stroke="#F6BE7D" stroke-width="119" stroke-linecap="round"/>
<path d="M868.1 1079.84C874.302 1061.24 893.535 1044.38 906.796 1031.12C926.508 1011.41 948.071 991.46 971.958 976.786C1047.06 930.652 1129.57 898.813 1209.75 862.703C1244.49 847.056 1266.53 831.259 1280.32 794.334C1288.31 772.959 1293.81 748.936 1268.29 741.402C1252.46 736.727 1239.49 735.185 1234.61 717.744C1230.68 703.708 1231.88 718.137 1230.4 725.563C1223.87 758.188 1184.02 849.686 1200.53 820.799C1215.77 794.115 1230.32 758.127 1229 726.966C1228.24 709.101 1208.57 686.244 1237.22 694.285C1307.01 713.877 1366.21 708.207 1434.71 690.075" stroke="#A46BF9" stroke-width="119" stroke-linecap="round"/>
<path d="M1099.5 0C1124.84 31.8597 1153.15 61.1617 1173.25 96.2681C1206.23 153.862 1233.09 216.96 1249.82 279.968C1261.45 323.753 1265.44 367.31 1265.44 412.046C1265.44 422.63 1268.16 442.491 1249.56 436.695C1228.52 430.134 1212.24 413.936 1210.38 393.676C1209.12 379.96 1207.77 362.697 1211.15 349.263C1213.85 338.538 1250.75 395.632 1252.38 397.629C1287.27 440.258 1337.56 495.987 1390.15 522.034C1468.26 560.722 1596.28 479.268 1611.15 406.465C1615.35 385.879 1611.15 361.039 1611.15 339.961C1611.15 303.69 1619.52 267.848 1625.23 232.067C1630.71 197.746 1636.45 163.328 1640.34 128.823C1641.89 115.165 1645.38 97.446 1637.78 84.409C1627.29 66.4183 1598.06 58.7151 1577.86 54.4124C1487.45 35.1545 1388.38 46.0413 1296.17 46.0413C1278.94 46.0413 1261.67 45.7221 1244.44 46.0413C1237.29 46.1739 1236.09 45.4795 1240.34 51.622C1268.67 92.5352 1289.67 137.534 1308.72 182.537C1341.09 259.019 1365.73 337.267 1373.51 419.022C1373.99 424.152 1372.23 469.957 1391.94 457.622C1443.53 425.353 1518.51 382.827 1532.28 322.987C1541.42 283.268 1540.24 236.977 1535.35 196.722C1533.64 182.655 1531.64 140.552 1520.5 128.59C1513.41 120.983 1474.85 123.666 1466.21 122.544C1394.4 113.229 1315.23 97.3584 1251.1 65.1089C1235.86 57.4421 1213.76 44.8882 1209.1 28.3689C1200.28 -2.94815 1228.76 34.873 1235.74 42.7858C1275.56 87.9913 1313.21 134.367 1352 180.212C1390.05 225.19 1439.75 260.472 1469.79 311.127C1478.82 326.346 1484.65 377.841 1486.69 360.657C1490.84 325.844 1496 284.92 1486.69 251.134" stroke="#F587B0" stroke-width="119" stroke-linecap="round"/>
<path d="M0.5 668C125.472 615.318 233.872 523.562 322.965 425.986C370.986 373.392 415.246 317.296 457.559 260.373C485.933 222.204 522.486 171.937 546.821 130.939C553.082 120.392 579.778 82.172 567.151 64.4247C555.019 47.3741 511.126 57.7135 494.012 58.1328C404.652 60.3222 315.136 65.3236 225.758 65.3236C195.693 65.3236 165.627 65.3236 135.561 65.3236C117.925 65.3236 84.1269 43.9083 67.5634 42.1385C47.1626 39.9586 54.9452 64.0342 54.9452 77.6429C54.9452 188.851 69.7649 315.06 67.5634 426.21C67.3532 436.823 53.1903 537.349 60.3196 541.712C71.6936 548.673 234.25 361.606 249.593 346.213C280.526 315.178 311.905 284.829 341.659 252.733C355.752 237.53 374.42 224.552 384.654 206.442C391.442 194.432 397.049 178.177 395.87 164.197C394.742 150.81 314.034 158.997 312.917 159.028C271.731 160.188 249.563 161.351 208.7 164.421C197.213 165.284 162.195 166.349 148.18 173.635C106.429 195.337 121.251 294.661 123.878 330.034C126.619 366.933 127.804 370.293 156.592 343.292C189.056 312.843 218.493 279.544 251.462 249.587C295.528 209.547 337.378 159.659 397.74 143.074C424.857 135.623 456.152 133.893 484.198 130.041" stroke="#A694EC" stroke-width="119" stroke-linecap="round"/>
<path d="M1577.5 658C1577.5 733.335 1573.81 808.547 1573.45 883.856C1573.19 938.854 1574.22 993.496 1568.5 1048.29C1565.85 1073.64 1561.24 1098.62 1558.15 1123.89C1557.76 1127.05 1558.93 1139.13 1556.35 1141.84C1555.35 1142.89 1553.19 1141.9 1552.3 1141.84C1532.9 1140.59 1515.87 1140.94 1495.6 1141.37C1402.27 1143.37 1308.93 1146.86 1216.6 1161.92C1201.02 1164.47 927.97 1215.45 929.506 1173.5C930.378 1149.72 1019.35 1128.34 1033.46 1122.47C1104.32 1093.01 1170.99 1051.77 1244.73 1030.57C1305.3 1013.15 1343.18 991.792 1379.73 935.123C1392.54 915.25 1405.16 894.837 1406.95 870.39C1408.05 855.378 1406.56 840.09 1409.65 825.266C1413.86 805.075 1458.69 816.155 1471.3 818.179C1519.06 825.84 1495.33 882.721 1491.55 920.239C1486.84 967.014 1468.63 1033.32 1428.55 1060.1C1411.13 1071.74 1392.61 1074.75 1372.53 1074.75C1360.99 1074.75 1346.49 1074.92 1338.55 1083.25" stroke="#C5ABEC" stroke-width="119" stroke-linecap="round"/>
<path d="M341.5 1185.52C360.248 1114.04 379.889 1035.94 418.439 978.017C442.472 941.909 475.638 921.58 509.002 903.275C573.818 867.715 651.325 857.497 720.985 856.235C758.086 855.563 789.766 854.975 823.971 875.051C852.38 891.726 883.65 899.598 911.329 917.387C930.075 929.436 925.755 944.377 925.755 969.131C925.755 1001.78 930.171 1039.59 924.953 1071.57C919.899 1102.56 892.494 1122.81 872.859 1134.82C809.89 1173.32 728.753 1173.63 660.075 1180.81C586.409 1188.52 510.192 1197.38 436.872 1179.77C417.827 1175.19 397.525 1166.14 382.173 1150.24C363.257 1130.64 388.765 1105.52 400.807 1092.48C452.52 1036.49 530.455 1009.97 594.757 990.038C628.334 979.63 662.872 975.809 697.142 971.483C730.86 967.227 767.914 960.644 799.527 981.153C818.725 993.607 845.61 1023.16 845.61 1054.59C845.61 1072.2 815.606 1071.13 808.743 1071.57C711.424 1077.89 612.049 1077.32 514.612 1077.32" stroke="#FD9CFC" stroke-width="119" stroke-linecap="round"/>
<path d="M52.475 798.578C150.068 738.59 261.578 686.657 344.401 602.29C371.922 574.257 402.592 553.783 431.087 528.107C444.434 516.08 457.849 503.958 471.03 491.706C484.717 478.985 488.177 451.797 491.639 433.649C493.036 426.331 492.325 483.117 492.277 492.167C492.1 525.485 493.783 563.445 484.416 595.609C455.823 693.789 457.278 797.332 468.481 898.565C470.925 920.654 463.233 935.345 446.172 948.328C402.54 981.529 353.325 1003.64 312.107 1041.4C283.852 1067.29 260.021 1103.85 244.331 1140.01C238.761 1152.84 238.199 1175.95 223.084 1175.95C191.818 1175.95 158.661 1179.27 127.687 1174.1C45.4165 1160.38 19.7411 1082.34 22.7299 1001.32C24.6139 950.244 45.4452 895.124 87.1067 868.154C159.972 820.983 249.176 787.103 310.407 720.708C328.734 700.836 346.847 660.218 378.396 664.494C418.431 669.921 400.141 734.939 392.843 759.413C364.76 853.587 332.992 961.945 258.141 1023.43C230.567 1046.08 209.698 1073.3 184.628 1098.31C171.845 1111.06 141.441 1107.22 125.563 1104.76C103.87 1101.4 93.2296 1075.26 91.5685 1053.84C88.0709 1008.75 107.489 976.942 139.798 950.401C177.281 919.61 221.328 900.109 261.115 873.222C264.475 870.952 302.532 839.477 284.061 862.625C251.942 902.877 216.689 940.172 183.778 979.66C137.596 1035.07 196.868 979.866 211.611 963.072C262.415 905.201 296.662 841.503 333.141 773.005C365.453 712.331 398.045 650.947 431.087 591.232" stroke="#F283AC" stroke-width="119" stroke-linecap="round"/>
</g>
</g>
<defs>
<filter id="filter0_f_99_21" x="-259.015" y="-259.502" width="2161.02" height="1709" filterUnits="userSpaceOnUse" color-interpolation-filters="sRGB">
<feFlood flood-opacity="0" result="BackgroundImageFix"/>
<feBlend mode="normal" in="SourceGraphic" in2="BackgroundImageFix" result="shape"/>
<feGaussianBlur stdDeviation="100" result="effect1_foregroundBlur_99_21"/>
</filter>
<clipPath id="clip0_99_21">
<rect width="1642" height="1190" fill="white" transform="translate(0.5)"/>
</clipPath>
</defs>
</svg>
